<svg width="24" height="24" viewBox="0 0 24 24" fill="none" xmlns="http://www.w3.org/2000/svg">
<path fill-rule="evenodd" clip-rule="evenodd" d="M12.716 5.01612C14.4042 3.32796 17.1957 3.32796 18.8838 5.01612C20.572 6.70427 20.572 9.49573 18.8838 11.1839L15.803 14.2647C14.3366 15.8525 11.9505 15.936 10.3066 14.8401C9.73215 14.4571 9.57693 13.681 9.95987 13.1066C10.3428 12.5322 11.1189 12.377 11.6933 12.7599C12.4412 13.2585 13.4394 13.1483 13.975 12.5592C13.9883 12.5445 14.002 12.5301 14.016 12.5161L17.116 9.41612C17.8279 8.70427 17.8279 7.49573 17.116 6.78388C16.4297 6.09752 15.2816 6.07295 14.5621 6.71017L14.44 6.89337C14.0571 7.46779 13.281 7.623 12.7066 7.24006C12.1321 6.85712 11.9769 6.08104 12.3599 5.50663L12.5599 5.20663C12.6055 5.13814 12.6578 5.07432 12.716 5.01612Z" fill="#4A4141"/>
<path fill-rule="evenodd" clip-rule="evenodd" d="M8.1591 9.67524C9.63134 8.33684 11.897 7.98549 13.6499 9.30017C14.2022 9.71438 14.3142 10.4979 13.8999 11.0502C13.4857 11.6025 12.7022 11.7144 12.1499 11.3002C11.5107 10.8207 10.5911 10.8624 9.86729 11.5013L6.79774 14.6699L6.78382 14.684C6.07198 15.3959 6.07198 16.6044 6.78382 17.3163C7.49567 18.0281 8.70421 18.0281 9.41606 17.3163L10.2999 18.2002L9.41606 17.3163L9.71606 17.0163C10.2042 16.5281 10.9957 16.5281 11.4838 17.0163C11.972 17.5044 11.972 18.2959 11.4838 18.7841L11.1838 19.0841C9.49567 20.7722 6.70421 20.7722 5.01606 19.084C3.33044 17.3984 3.3279 14.6128 5.00845 12.9239L8.10214 9.73042C8.12054 9.71143 8.13953 9.69303 8.1591 9.67524Z" fill="#4A4141"/>
</svg>
